<?xml version="1.0" encoding="utf-8"?>
<!-- Generator: Adobe Illustrator 21.0.0, SVG Export Plug-In . SVG Version: 6.00 Build 0)  -->
<svg version="1.1" id="Слой_1" xmlns="http://www.w3.org/2000/svg" xmlns:xlink="http://www.w3.org/1999/xlink" x="0px" y="0px"
	 viewBox="0 0 1868 710" style="enable-background:new 0 0 1868 710;" xml:space="preserve">
<style type="text/css">
	.st0{fill:#BC0022;}
	.st1{fill:#FFC11E;}
</style>
<g>
	<path class="st0" d="M1015.9,227.7h-42.7c-23.6,0-44.9,11.8-54.2,33.5L802.2,530.8l-10-250.7c-4.7-39-27.9-52.4-58.8-52.4h-62.3
		c-23.6,0-45,11.9-54.2,33.6l-116,269.5h-1.8l-8.6-250.4c-2.1-30.9-27.8-52.8-58.8-52.8h-57.3c-6.2,0-12.1,1-17.7,2.8
		c22.9,32.3,31.9,69.3,25.3,108.4l-38.3,197.7l18.5,121.6c4.4,28.8,29.1,50.1,58.3,50.1h91.2c23.7,0,45.1-14.2,54.3-36.1
		l107.2-252.3l12.7,234.8c2.8,30.4,28.2,53.6,58.7,53.6h90.6c22.4,0,42.9-12.7,52.8-32.8l180.8-364.9
		C1088.2,271.4,1059.7,227.7,1015.9,227.7z"/>
	<path class="st0" d="M1262.3,227.4h-66.4c-28.7,0-53.2,19.6-58.1,47.9l-68,364c-6.3,36,21.5,69,58.1,69h65.1
		c28.6,0,53-20.5,58-48.6l69.3-364C1326.7,259.5,1299,227.4,1262.3,227.4z"/>
	<path class="st0" d="M1826,260.7c-27.3-22-64.2-33-110.5-33c-64.8,0-123,29.1-174.7,87.4l0.9-4.9c6.9-36.3-20.9-70-57.9-70h-49.5
		c-28.6,0-53.1,20.6-58.1,48.8l-61.4,350.2c-6.3,36.1,21.4,69.1,58.1,69.1h66.7c28.6,0,53.1-20.6,58.1-48.8l33.4-190.2
		c8.3-39.2,18.7-64.2,31.2-74.9c14.3-13.7,33.3-20.5,57.1-20.5c35.1,0,52.6,18.4,52.6,55.3l-0.9,16l-0.9,14.3l-31.5,179.6
		c-6.3,36.1,21.4,69.1,58.1,69.1h65.1c28.5,0,52.9-20.4,58-48.5l42.1-233.2c3.6-19.6,5.4-38.3,5.4-56.2
		C1867,319.3,1853.3,282.7,1826,260.7z"/>
	<circle class="st1" cx="1254.9" cy="88.2" r="86.5"/>
	<path class="st1" d="M314.3,278.5c-12.2-25.2-35.9-44.3-65.6-49.4c-19.9-3.4-39.3,0.2-55.9,8.8L44.3,304.4
		C7.4,321-9.1,364.3,7.4,401.2c16.5,36.9,59.9,53.4,96.8,36.9l19.9-8.9L90.8,603.9c-8.2,48.7,24.6,94.9,73.2,103.1h0
		c48.7,8.2,94.9-24.6,103.1-73.2l53.5-294.5l1.2-7C325.1,313.3,322.1,294.7,314.3,278.5z"/>
</g>
</svg>
